<svg width="56" height="56" viewBox="0 0 56 56" fill="none" xmlns="http://www.w3.org/2000/svg">
<path d="M38.3044 21.9101C33.7964 12.8867 18.6077 14.8723 16.4382 24.7851C15.1292 30.7665 20.6488 34.9525 21.3618 40.5538H34.0153C34.3873 39.056 35.1444 37.2747 35.6686 36.1799C36.7581 33.9053 38.2992 32.4185 38.8843 29.8809C39.441 27.4663 39.3765 24.0564 38.3044 21.9101Z" stroke="white" stroke-width="4" stroke-miterlimit="1.5" stroke-linecap="round" stroke-linejoin="round"/>
<path fill-rule="evenodd" clip-rule="evenodd" d="M21.1293 48.1876C21.1257 46.4592 21.0409 44.7309 21.0709 43.003C21.0828 42.3188 20.9659 41.4819 21.558 41.0035C22.4228 40.3053 23.709 40.2036 24.7821 40.1777C26.7934 40.1296 28.8202 40.1466 30.8336 40.1507C31.7505 40.1523 33.119 39.9931 33.9454 40.4487C34.7321 40.8816 34.9312 42.0616 35.0196 42.8586C35.1893 44.3858 35.6408 47.796 34.3442 48.9783C33.5276 49.723 32.2538 49.8788 31.208 50.0076C28.4339 50.3489 21.1334 50.2812 21.1293 48.1876Z" stroke="white" stroke-width="4" stroke-miterlimit="1.5" stroke-linecap="round" stroke-linejoin="round"/>
<path d="M28.5227 50.1545C28.5453 51.0952 28.5564 52.0407 28.4824 52.9799" stroke="white" stroke-width="4" stroke-miterlimit="1.5" stroke-linecap="round" stroke-linejoin="round"/>
<path d="M6.58398 35.7939C7.57093 35.273 8.60166 34.8444 9.59918 34.3462" stroke="white" stroke-width="4" stroke-miterlimit="1.5" stroke-linecap="round" stroke-linejoin="round"/>
<path d="M6.58398 15.5496C7.68568 16.2491 8.73957 17.0223 9.84378 17.7158" stroke="white" stroke-width="4" stroke-miterlimit="1.5" stroke-linecap="round" stroke-linejoin="round"/>
<path d="M28.3291 7.25731C28.2908 5.87176 28.2992 4.49613 28.343 3.11108" stroke="white" stroke-width="4" stroke-miterlimit="1.5" stroke-linecap="round" stroke-linejoin="round"/>
<path d="M45.3848 16.6956C46.7678 15.7801 48.1921 14.92 49.5988 14.0413" stroke="white" stroke-width="4" stroke-miterlimit="1.5" stroke-linecap="round" stroke-linejoin="round"/>
<path d="M42.9717 35.5762C44.0381 36.5319 45.1091 37.4766 46.1414 38.4696" stroke="white" stroke-width="4" stroke-miterlimit="1.5" stroke-linecap="round" stroke-linejoin="round"/>
</svg>
