<svg width="60" height="56" viewBox="0 0 60 56" fill="none" xmlns="http://www.w3.org/2000/svg">
<path fill-rule="evenodd" clip-rule="evenodd" d="M27.3544 42.2834C36.1421 43.6267 37.3042 40.0502 38.2784 34.4994C39.5103 27.4802 34.9342 15.1793 26.8117 14.4343C21.6466 13.9605 20.2753 19.7296 17.1735 22.9081C12.7521 27.4389 9.59267 29.4908 4.3125 32.8326C0.578479 35.1958 2.75463 42.1999 6.72857 44.0748C8.88791 45.0936 11.519 43.9126 13.6706 43.5068C18.1863 42.655 22.7402 41.5781 27.3544 42.2834V42.2834Z" stroke="white" stroke-width="4" stroke-miterlimit="1.5" stroke-linecap="round" stroke-linejoin="round"/>
<path d="M36.5475 32.498C36.2762 26.5621 33.6435 17.7693 26.7983 16.5895C22.9441 16.1912 21.6627 21.7876 21.4933 24.6731C21.1409 30.6759 24.7518 39.4073 31.5814 40.1817C35.6324 40.6412 36.6853 35.5129 36.5475 32.498Z" stroke="white" stroke-width="4" stroke-miterlimit="1.5" stroke-linecap="round" stroke-linejoin="round"/>
<path fill-rule="evenodd" clip-rule="evenodd" d="M28.8784 25.5516C27.4305 26.2102 28.199 28.7713 28.7933 30.3171C29.0533 30.9933 30.0049 32.3117 30.6108 32.0497C32.5058 31.2302 30.5372 25.0336 28.8784 25.5516Z" stroke="white" stroke-width="4" stroke-miterlimit="1.5" stroke-linecap="round" stroke-linejoin="round"/>
<path d="M15.5526 43.1466C12.5515 41.5307 10.4081 37.1289 9.52322 34.0522C9.12037 32.6515 8.89424 31.0967 9.21073 29.6539" stroke="white" stroke-width="4" stroke-miterlimit="1.5" stroke-linecap="round" stroke-linejoin="round"/>
<path d="M4.97852 37.5576C5.16914 38.5959 5.55899 39.6199 6.2377 40.4369" stroke="white" stroke-width="2" stroke-miterlimit="1.5" stroke-linecap="round" stroke-linejoin="round"/>
<path d="M7.18359 36.3053C7.44309 37.4141 7.94035 38.4184 8.71552 39.2567" stroke="white" stroke-width="2" stroke-miterlimit="1.5" stroke-linecap="round" stroke-linejoin="round"/>
<path d="M17.7872 42.7287C16.8665 42.8694 15.7624 43.0987 14.7178 43.3025C15.1486 44.1548 15.7422 45.2108 16.3942 45.918C16.6739 46.2212 16.9706 46.537 17.3828 46.6486C17.5467 46.693 17.7263 46.696 17.8947 46.6818C18.3945 46.6397 19.6493 46.4906 19.6974 45.8059C19.7285 45.3611 19.3805 44.9104 19.1301 44.5755C18.6778 43.9706 18.2515 43.3459 17.8327 42.7178" stroke="white" stroke-width="4" stroke-miterlimit="1.5" stroke-linecap="round" stroke-linejoin="round"/>
<path d="M39.4645 40.8148C41.9149 41.496 44.3862 42.1126 46.8129 42.8808C46.0675 41.5226 45.7366 39.7047 45.2747 38.2422C48.2368 37.9151 51.263 37.6176 54.1947 37.1111C52.3565 35.4201 50.6953 33.1641 49.2004 31.1963C52.0223 30.4123 54.7971 29.4322 57.5587 28.4625C54.7453 26.5375 51.9405 24.5085 49.0009 22.7883C50.9377 20.1472 52.7414 17.3983 54.7828 14.8378C51.3719 14.8077 47.9599 14.601 44.5491 14.5939C45.5077 11.7741 46.7441 9.02162 47.7983 6.23657C44.01 7.41634 40.364 8.98721 36.5336 10.053C36.4694 7.77175 36.4671 5.49011 36.2746 3.21484C34.3481 5.10432 32.4463 7.00567 30.4061 8.77402C29.8804 7.50933 29.3444 6.25477 28.7626 5.01431C28.0351 6.95667 27.4976 8.96296 26.9717 10.9676" stroke="white" stroke-width="4" stroke-miterlimit="1.5" stroke-linecap="round" stroke-linejoin="round"/>
<path d="M14.7177 43.3037C15.1485 44.1558 15.7419 45.2112 16.3936 45.9181C16.6732 46.2213 16.9699 46.537 17.3821 46.6487C17.546 46.6931 17.7256 46.6961 17.894 46.6819C18.2559 46.6514 19.0133 46.5648 19.4223 46.2596C19.6256 46.4731 19.8506 46.6963 20.0835 46.9274C21.1345 47.9702 22.3475 49.1737 22.4701 50.3702C22.5606 51.2534 21.7588 52.001 21.0191 52.3423C19.4162 53.0819 17.7863 52.8948 16.3024 51.9702C13.6901 50.3426 12.2304 47.2301 11.1401 44.4848C11.1368 44.4765 11.1332 44.4674 11.1293 44.4577C11.0955 44.373 11.0423 44.2399 11.0176 44.1513C12.1118 43.8354 13.5014 43.5421 14.7177 43.3037Z" stroke="white" stroke-width="2" stroke-miterlimit="1.5" stroke-linecap="round" stroke-linejoin="round"/>
<path d="M28.8462 25.566C27.4411 26.2474 28.2027 28.7823 28.7927 30.3167C29.0353 30.9478 29.8805 32.1384 30.4847 32.0813C30.4868 32.0866 30.4888 32.0918 30.4909 32.097C29.2265 32.7535 28.2145 33.3824 27.244 33.9855C26.3719 34.5275 25.5333 35.0486 24.5753 35.5501C23.6666 34.3016 22.7062 32.1096 22.5064 31.431C22.4646 31.2888 22.4236 31.1511 22.3835 31.0163C22.0656 29.9484 21.8014 29.061 21.5988 27.5776C22.5229 27.3061 23.5056 27.0528 24.4985 26.7968C25.9784 26.4152 27.481 26.0278 28.8462 25.566Z" stroke="white" stroke-width="2" stroke-miterlimit="1.5" stroke-linecap="round" stroke-linejoin="round"/>
</svg>
