<svg width="80" height="80" viewBox="0 0 80 80" fill="none" xmlns="http://www.w3.org/2000/svg">
<g clip-path="url(#clip0_15992_31449)">
<path d="M75.9253 32.111C75.0508 32.1273 74.1874 32.1224 73.4939 32.1182L73.0333 32.1159L68.6563 23.8698C68.9155 23.5648 69.1869 23.2529 69.4641 22.9336C70.2764 21.999 71.1159 21.0323 71.8933 19.9894C72.8721 18.677 72.7911 17.1576 71.6824 16.0249L71.6118 15.9527C68.8403 13.1197 65.9739 10.1903 63.0256 7.44455C62.188 6.66447 61.4489 6.31785 60.7098 6.34985C59.9286 6.38479 59.1551 6.85689 58.2771 7.83452C57.6416 8.54146 57.0275 9.24873 56.3772 9.99779C56.1647 10.2431 55.9493 10.4908 55.7316 10.7409C53.7916 8.76314 51.3611 7.58205 47.9325 6.94662C47.9325 6.74678 47.9363 6.54894 47.9389 6.35302C47.947 5.72086 47.9548 5.12402 47.9247 4.51407C47.7498 0.996998 46.7619 0.0336948 43.3278 0.0327148H43.2999C41.1499 0.0327148 38.9673 0.109103 36.8568 0.183225C35.8528 0.218164 34.8516 0.253692 33.8489 0.281121C32.3071 0.32357 31.3613 1.17876 31.1858 2.68897C31.0711 3.67704 30.996 4.66394 30.9296 5.5348C30.9086 5.81333 30.8885 6.07932 30.8684 6.32814L23.1152 10.7456C22.9562 10.5497 22.7939 10.3475 22.6294 10.1415C22.094 9.47436 21.5405 8.78404 20.9413 8.11465C20.0846 7.15727 19.2571 6.67341 18.4107 6.63619C17.5861 6.60517 16.7551 6.98456 15.8712 7.81395C13.3494 10.1803 10.9432 12.545 8.72008 14.8425C6.90016 16.7223 6.81333 18.3038 8.41074 20.487C8.98013 21.2641 9.61398 21.9988 10.1231 22.5892C10.2715 22.7612 10.4104 22.9218 10.5361 23.0703L7.07827 32.4418C6.71973 32.4745 6.35568 32.5043 5.98807 32.5343C4.97916 32.6172 3.93595 32.7029 2.89855 32.8433C1.00802 33.0986 0.271814 33.9349 0.272461 35.8249C0.272461 39.4722 0.310674 42.5083 0.387436 45.3795C0.415938 46.4475 0.71326 47.2378 1.27164 47.7276C1.84816 48.2337 2.66728 48.4191 3.77951 48.2928C4.40494 48.2226 5.02842 48.1406 5.65223 48.0583L5.81579 48.0364C5.81971 48.0724 5.82923 48.1073 5.84397 48.1403L9.75425 56.7257C9.25093 57.115 8.74674 57.5026 8.2417 57.8889C7.69022 58.312 7.13961 58.7359 6.58988 59.1604C4.98049 60.4077 4.68118 61.8298 5.69981 63.3876C7.36912 65.9391 9.3319 68.8867 11.5075 71.5777C13.4333 73.9613 14.9954 74.1315 17.6972 72.2575C18.8218 71.4771 19.9408 70.6902 21.0683 69.8957L22.3891 68.9667C25.3306 71.3207 28.2641 72.3953 31.5204 72.3473C31.4906 72.6252 31.4615 72.8893 31.4333 73.1437C31.3491 73.9032 31.2762 74.5595 31.2305 75.2296C31.112 76.9824 31.3462 78.0704 31.9894 78.7607C32.6165 79.4324 33.6393 79.7341 35.2976 79.7341H35.4045C37.6523 79.7171 39.937 79.6773 42.1462 79.6391C43.0583 79.6227 43.97 79.6074 44.8821 79.5927C46.154 79.5724 47.0521 79.2508 47.6306 78.6088C48.2091 77.9669 48.4403 77.033 48.3347 75.7553C48.2635 74.8769 48.1841 73.9992 48.1125 73.2103L48.0478 72.4965L54.8384 69.6136L54.9789 69.8069C55.2309 70.153 55.4874 70.505 55.7407 70.8593C55.8674 71.0363 55.9908 71.2159 56.1142 71.3955C56.3357 71.7177 56.565 72.0515 56.8121 72.3685C58.0287 73.9297 59.3686 74.2608 61.1574 73.4441C61.7465 73.1953 62.301 72.8688 62.8057 72.4737C63.3848 71.9884 63.9645 71.5039 64.5456 71.02C66.9138 69.0441 69.3627 67.001 71.6899 64.8949C72.749 63.9362 73.2355 63.1336 73.2682 62.2921C73.3006 61.4343 72.8471 60.5556 71.7977 59.4438C71.0314 58.6327 70.2583 57.8284 69.5483 57.0902L68.8358 56.3476L73.3193 47.7243C73.5017 47.7066 73.7006 47.688 73.9121 47.6684C74.6197 47.6031 75.4991 47.5205 76.3674 47.417C78.2191 47.1966 78.8782 46.587 79.3064 44.7003C80.178 40.86 79.5007 37.112 78.8144 34.2761C78.4649 32.8309 77.4641 32.0937 75.9253 32.111ZM68.2356 45.4542C67.2905 49.3008 65.9558 51.9816 63.9072 54.1465C63.0768 55.0242 63.1069 56.2539 63.9901 57.5202C64.7921 58.6699 65.6283 59.7853 66.5138 60.9667C66.8283 61.3867 67.1487 61.8137 67.4745 62.2526L59.8207 68.3845C59.6076 68.1285 59.3984 67.8758 59.1937 67.6263C58.5919 66.8975 58.0238 66.2092 57.424 65.5326C55.8275 63.7324 54.9899 63.8062 52.9401 64.9932C51.3138 65.899 49.6011 66.6366 47.8278 67.1953C43.7582 68.5635 43.4521 70.3914 43.4317 73.24C43.4291 73.6012 43.4048 73.9741 43.3789 74.3689C43.3721 74.4688 43.3657 74.5706 43.3592 74.6751H35.8126L35.7715 73.7612C35.7336 72.9096 35.697 72.0913 35.6559 71.2737C35.5396 68.9808 35.0589 68.1507 32.5906 68.0609C28.893 67.9267 25.7827 66.8358 23.0815 64.7254C22.0538 63.9215 20.8645 63.9888 19.4452 64.9295C18.3871 65.6312 17.3458 66.3558 16.243 67.1235C15.8386 67.4053 15.4242 67.6933 14.9999 67.9871L10.176 61.4644C10.4743 61.2123 10.7689 60.9615 11.0595 60.712C11.8958 59.9969 12.6851 59.3213 13.5162 58.6781C14.8875 57.6172 15.0012 56.9942 14.0969 55.5019C12.4568 52.795 10.7628 49.516 10.6336 45.7191C10.5889 44.3891 9.81482 43.6906 8.33401 43.6426C7.46308 43.6142 6.58502 43.6204 5.6519 43.6263C5.32121 43.6286 4.98143 43.6312 4.62904 43.6322L4.30032 37.2426C4.77773 37.192 5.2396 37.1391 5.68947 37.0879C6.88785 36.9507 8.02146 36.8218 9.14534 36.7692C10.5332 36.7039 11.3452 35.96 11.5589 34.555C12.1821 30.4628 13.3316 27.2914 15.1761 24.5734C15.4776 24.1872 15.6433 23.7113 15.6473 23.2199C15.6513 22.7285 15.4933 22.2496 15.1981 21.8586C14.5184 20.8657 13.8359 19.876 13.1505 18.8892L12.5212 17.9791L18.7 11.6389C18.9436 11.8783 19.1872 12.1179 19.431 12.3573C20.1436 13.0584 20.8788 13.7826 21.6156 14.4863C23.0614 15.8656 23.4731 15.6768 24.9821 14.6574C26.8898 13.3679 28.9309 12.0297 31.0663 11.0828C32.9028 10.2687 34.5452 9.32288 34.4672 6.72533C34.4763 6.17666 34.5498 5.63103 34.6865 5.09983C34.7305 4.89314 34.7749 4.68089 34.816 4.46146H43.423C43.4249 4.64007 43.4285 4.82055 43.4317 5.00242C43.444 5.65124 43.4567 6.32171 43.41 6.97803C43.2274 9.53379 44.0756 10.6192 46.4355 10.8487C48.9294 11.0917 51.1104 12.2091 53.503 14.4732C54.7759 15.6768 55.4787 15.9033 56.8882 14.7774C57.8275 14.0264 58.6981 13.234 59.6189 12.3938C59.9347 12.1061 60.2534 11.8172 60.575 11.527L66.7464 18.0778C66.601 18.2316 66.4452 18.3945 66.2816 18.5656C65.6474 19.2304 64.9281 19.9841 64.2165 20.7727C62.3121 22.8843 62.3001 23.6787 64.1394 25.7685C66.0882 27.9257 67.4612 30.5469 68.1294 33.386C68.5022 35.0278 69.4376 35.8262 71.0732 35.9C71.8583 35.9349 72.6431 35.978 73.5279 36.0253L74.5527 36.0802L74.9168 42.9396H73.9597C73.1066 42.9377 72.3367 42.937 71.5665 42.9432C69.559 42.9602 68.6871 43.6175 68.2356 45.4542Z" fill="white"/>
<path d="M42.6342 19.2548C39.4569 18.9586 36.2549 19.4141 33.2833 20.5852C30.3113 21.7562 27.6517 23.6105 25.516 26.0004C23.3802 28.3902 21.8272 31.2498 20.9807 34.3512C20.1342 37.453 20.0175 40.7108 20.6399 43.8657C22.2677 51.6407 26.2661 56.5589 32.8642 58.9014C34.8094 59.5783 36.8554 59.9124 38.9134 59.8899C40.6258 59.8758 42.3336 59.7086 44.0172 59.3906C54.8998 57.4281 60.8917 49.7272 60.8868 37.7057V37.6982C60.7547 33.9375 59.5113 30.302 57.3157 27.2586C53.8578 22.5971 48.9186 19.904 42.6342 19.2548ZM55.7225 42.7571C54.4295 49.275 50.3514 53.0618 43.2557 54.3336C40.9587 54.745 37.9456 55.1023 35.0118 54.2092C29.9027 52.653 26.8358 49.0311 25.6362 43.1375C25.4484 42.0995 25.3256 41.0507 25.2682 39.9973C25.2313 39.5075 25.1947 39.0203 25.1452 38.5344C25.1361 36.5759 25.5194 34.6356 26.2721 32.8299C27.0249 31.0245 28.1315 29.3907 29.5257 28.0267C32.4956 25.1424 36.6676 23.6449 41.245 23.7905C46.1869 23.9538 50.102 25.7456 52.8813 29.1131C55.8909 32.7604 56.8204 37.2241 55.7225 42.7571Z" fill="white"/>
</g>
<defs>
<clipPath id="clip0_15992_31449">
<rect width="80" height="80" fill="white"/>
</clipPath>
</defs>
</svg>
