<svg width="40" height="41" viewBox="0 0 40 41" fill="none" xmlns="http://www.w3.org/2000/svg">
<path d="M36.1287 4.88562H3.87063C2.87922 4.88562 1.97484 5.2582 1.29 5.87117L0.636719 8.75664V27.5135C0.636719 29.6514 2.36977 31.3845 4.50766 31.3845H36.1287L39.0141 30.6921C39.627 30.0073 39.9996 29.1028 39.9996 28.1115V8.75656C39.9997 6.61867 38.2666 4.88562 36.1287 4.88562Z" fill="#4BC3EF"/>
<path d="M32.2579 35.2082H7.74184C7.3852 35.2082 7.09668 34.9192 7.09668 34.563C7.09668 34.2068 7.38527 33.9178 7.74184 33.9178H32.2579C32.6146 33.9178 32.9031 34.2068 32.9031 34.563C32.9031 34.9192 32.6146 35.2082 32.2579 35.2082Z" fill="#4BC3EF"/>
<path d="M26.724 17.2798L16.7061 12.2708C16.6164 12.226 16.5253 12.1921 16.4336 12.1694L15.3994 13.4249V23.4429L16.7061 23.9726L26.724 18.9636L27.1394 17.6051C27.0307 17.4757 26.8922 17.364 26.724 17.2798Z" fill="white"/>
<path d="M3.87094 30.692C2.4457 30.692 1.29031 29.5366 1.29031 28.1114V5.87109C0.500078 6.57984 0 7.61156 0 8.75656V28.1114C0 30.2493 1.73305 31.9823 3.87094 31.9823H36.129C37.274 31.9823 38.3059 31.4823 39.0145 30.692H3.87094Z" fill="#1BADDE"/>
<path d="M19.2349 21.5601C17.948 22.2035 16.4338 21.2677 16.4338 19.8289V12.1694C15.6484 11.9749 14.8389 12.5657 14.8389 13.4249V23.443C14.8389 24.4022 15.8483 25.026 16.7062 24.597L26.7242 19.5881C27.5065 19.1969 27.6443 18.2081 27.1396 17.6052L19.2349 21.5601Z" fill="#E3F5FF"/>
</svg>
